<?xml version="1.0" standalone="no"?><!DOCTYPE svg PUBLIC "-//W3C//DTD SVG 1.1//EN" "http://www.w3.org/Graphics/SVG/1.1/DTD/svg11.dtd"><svg class="icon" width="128px" height="128.00px" viewBox="0 0 1024 1024" version="1.1" xmlns="http://www.w3.org/2000/svg"><path d="M896.5 924.7c-8.1 0-16.1-3.1-22.3-9.2L112.9 154.2c-12.3-12.3-12.3-32.3 0-44.6s32.3-12.3 44.6 0l761.2 761.3c12.3 12.3 12.3 32.3 0 44.6-6.1 6.1-14.2 9.2-22.2 9.2zM135.2 924.7c-8.1 0-16.1-3.1-22.3-9.2-12.3-12.3-12.3-32.3 0-44.6l761.2-761.3c12.3-12.3 32.3-12.3 44.6 0 12.3 12.3 12.3 32.3 0 44.6L157.5 915.5c-6.2 6.1-14.2 9.2-22.3 9.2z" /></svg>