<?xml version="1.0" standalone="no"?><!DOCTYPE svg PUBLIC "-//W3C//DTD SVG 1.1//EN" "http://www.w3.org/Graphics/SVG/1.1/DTD/svg11.dtd"><svg class="icon" width="128px" height="128.00px" viewBox="0 0 1024 1024" version="1.1" xmlns="http://www.w3.org/2000/svg"><path d="M513.6 957.8h-0.7c-22.4 0-44.2-9.3-59.7-25.5-8-8.3-80.1-84.2-153-182.1C200.3 616 149.6 507.2 149.6 427c0-200 163-362.7 363.3-362.7S876.2 227 876.2 427c0 49.5-18.4 108.9-54.7 176.5-33.7 62.8-84.1 135.2-149.5 215.3l-97 111c-15.3 17.7-37.7 28-61.2 28.2h-0.2z m-0.7-835.2C344.8 122.6 208 259.2 208 427c0 46.4 24.1 134 139.1 288.4 72.1 96.7 145.3 173.4 148.4 176.6 4.6 4.8 11 7.5 17.5 7.5l0.6 29.2-0.2-29.2c6.8-0.1 13.2-3 17.6-8.1l96-109.7c63-77.1 111.3-146.4 143.2-205.8 31.6-59 47.7-109 47.7-148.8-0.1-168-136.9-304.5-305-304.5zM512.9 601.5c-102.1 0-185.1-83-185.1-185.1s83-185.1 185.1-185.1S698 314.3 698 416.4s-83 185.1-185.1 185.1z m0-311.8c-69.9 0-126.7 56.8-126.7 126.7S443 543.1 512.9 543.1s126.7-56.8 126.7-126.7-56.8-126.7-126.7-126.7z" /></svg>