<?xml version="1.0" standalone="no"?><!DOCTYPE svg PUBLIC "-//W3C//DTD SVG 1.1//EN" "http://www.w3.org/Graphics/SVG/1.1/DTD/svg11.dtd"><svg class="icon" width="128px" height="128.00px" viewBox="0 0 1024 1024" version="1.1" xmlns="http://www.w3.org/2000/svg"><path d="M147.438941 645.831018h728.772122v39.119577h-728.772122zM274.661566 752.312867h66.483281c13.103858 0 23.691744 1.781981 31.757657 5.339942 8.065913 3.556962 14.729841 8.654906 20.001783 15.311835 5.266943 6.645928 9.089902 14.392844 11.454877 23.210749 2.377974 8.824905 3.557962 18.178803 3.557961 28.056697 0 15.474833-1.763981 27.471703-5.284943 36.00161-3.521962 8.528908-8.409909 15.673831-14.675841 21.439769-6.253932 5.760938-12.97086 9.601896-20.151782 11.509875-9.811894 2.635972-18.702798 3.947957-26.671712 3.947958h-66.471281z m44.747516 32.805645v79.129145h10.960882c9.353899 0 15.999827-1.039989 19.953784-3.117966 3.948957-2.069978 7.042924-5.693938 9.281899-10.864883 2.239976-5.169944 3.364964-13.549854 3.364964-25.142728 0-15.348834-2.503973-25.846721-7.511919-31.510659-5.001946-5.663939-13.302856-8.492908-24.889731-8.492909zM435.918822 824.821083c0-23.643744 6.584929-42.044545 19.755787-55.220403 13.169858-13.169858 31.510659-19.755786 55.028405-19.755786 24.100739 0 42.676539 6.46993 55.714398 19.41279 13.037859 12.94086 19.556789 31.071664 19.556788 54.384412 0 16.925817-2.846969 30.799667-8.540907 41.63555-5.699938 10.834883-13.929849 19.261792-24.703733 25.286727-10.762884 6.031935-24.185739 9.040902-40.257565 9.040902-16.335823 0-29.849677-2.599972-40.551562-7.799916-10.696884-5.201944-19.376791-13.435855-26.027718-24.703733-6.644928-11.256878-9.973892-25.347726-9.973893-42.279543z m44.747517 0.204998c0 14.620842 2.714971 25.124728 8.149912 31.511659 5.435941 6.391931 12.827861 9.582896 22.18176 9.582897 9.618896 0 17.058816-3.129966 22.325758-9.384899 5.266943-6.259932 7.902915-17.485811 7.902915-33.689636 0-13.633853-2.74997-23.595745-8.251911-29.885676-5.495941-6.284932-12.95386-9.432898-22.374758-9.432899-9.022902 0-16.269824 3.195965-21.729765 9.582897-5.464941 6.386931-8.203911 16.962817-8.203911 31.715657zM716.611788 837.865942l39.221576 11.851872c-2.635972 11.002881-6.783927 20.188782-12.447865 27.561702-5.657939 7.37992-12.688863 12.94186-21.091772 16.69182-8.396909 3.755959-19.080794 5.633939-32.052654 5.633939-15.73983 0-28.597691-2.286975-38.577583-6.861926-9.973892-4.573951-18.587799-12.621864-25.829721-24.137739-7.246922-11.519875-10.869882-26.255716-10.869882-44.229522 0-23.956741 6.373931-42.369542 19.116793-55.239403 12.742862-12.862861 30.770667-19.297791 54.083416-19.297791 18.239803 0 32.582648 3.68996 43.019535 11.06388 10.431887 7.37992 18.190803 18.701798 23.259748 33.984633l-39.510573 8.793905c-1.378985-4.405952-2.835969-7.637917-4.345953-9.678896-2.504973-3.418963-5.56794-6.060934-9.185901-7.896914-3.623961-1.84798-7.668917-2.76997-12.152868-2.76997-10.14889 0-17.919806 4.081956-23.312748 12.237867-4.086956 6.049935-6.127934 15.553832-6.127934 28.507692 0 16.053826 2.431974 27.056708 7.307921 33.003643 4.874947 5.953936 11.719873 8.926903 20.549778 8.926904 8.559907 0 15.029838-2.401974 19.41179-7.210922 4.375953-4.797948 7.559918-11.779873 9.534897-20.935774zM241.90392 358.516124v14.489844c0 4.001957 4.453952 7.246922 9.949892 7.246921h536.427201c5.495941 0 9.949892-3.244965 9.949893-7.247921v-14.487844c0-3.996957-4.453952-7.241922-9.949893-7.241921H251.852812c-5.495941 0-9.949892 3.244965-9.949892 7.241921zM241.651923 243.203371v14.488843c0 4.002957 2.099977 7.246922 4.689949 7.246922H680.34818c2.588972 0 4.689949-3.243965 4.689949-7.246922v-14.488843c0-3.996957-2.100977-7.240922-4.689949-7.240922H246.340872c-2.587972 0-4.689949 3.243965-4.689949 7.240922zM237.564967 463.330991v14.488844c0 4.002957 4.453952 7.246922 9.949892 7.246921h540.766154c5.495941 0 9.949892-3.243965 9.949893-7.246921v-14.488844c0-3.996957-4.453952-7.240922-9.949893-7.240922H247.514859c-5.495941 0-9.949892 3.243965-9.949892 7.240922zM237.564967 567.639864v14.488843c0 4.002957 4.453952 7.246922 9.949892 7.246922h540.766154c5.495941 0 9.949892-3.243965 9.949893-7.246922v-14.488843c0-3.996957-4.453952-7.240922-9.949893-7.240922H247.514859c-5.495941 0-9.949892 3.243965-9.949892 7.240922zM911.045686 285.965909l-0.066999-43.55553-35.844613-44.440519v0.757992L718.889763 3.243965c-0.715992-0.88999-1.558983-1.467984-2.412974-2.003978L715.452801 0l-523.684339 0.703992c-39.516573 0.059999-71.497227 39.944568-71.424228 89.086037l1.233987 845.323862c0.071999 49.141469 32.166652 88.935039 71.689225 88.875039l647.297002-0.88999c39.517573-0.059999 71.498227-39.945568 71.425228-89.087037L911.045686 288.896877M713.929817 60.12735l147.359407 184.353007-111.308797 0.162998c-19.749786 0.03-35.809613-19.881785-35.845612-44.440519z m162.281246 873.938552c0.036 24.559734-15.962827 44.513519-35.712614 44.543519l-647.297003 0.88999c-19.749786 0.03-35.809613-19.880785-35.844612-44.43952l-1.239987-845.323861c-0.036-24.559734 15.962827-44.512519 35.712614-44.542519l486.291743-0.656992 0.228998 155.714316c0.071999 49.141469 32.166652 88.935039 71.689225 88.875039l125.226646-0.179998z" /></svg>