<?xml version="1.0" standalone="no"?><!DOCTYPE svg PUBLIC "-//W3C//DTD SVG 1.1//EN" "http://www.w3.org/Graphics/SVG/1.1/DTD/svg11.dtd"><svg class="icon" width="128px" height="128.00px" viewBox="0 0 1024 1024" version="1.1" xmlns="http://www.w3.org/2000/svg"><path d="M377.5 737.9c-5.3 0-10.7-1.3-15.6-4.1L90.2 581.2c-9.8-5.5-16-15.8-16.3-27.1-0.2-11.3 5.5-21.9 15.1-27.8L863.9 47.4c13.1-8.1 30.3-5.7 40.6 6 10.3 11.6 10.7 28.9 1.1 41L402.5 725.9c-6.2 7.8-15.5 12-25 12z m-209-185.8l201 112.8 372-466.9-573 354.1zM793.2 978.1c-5.2 0-10.3-1.2-15-3.8L483.6 817.2c-7.5-4-13-10.8-15.5-18.9-2.5-8.1-1.6-16.8 2.4-24.3L851.1 61.6c7.2-13.4 22.9-19.9 37.4-15.5 14.6 4.4 24 18.5 22.5 33.7l-86.1 869.6c-1.1 10.6-7.3 20-16.7 25-4.7 2.5-9.9 3.7-15 3.7zM541.7 776l224.4 119.7 65.5-662.5L541.7 776zM397.1 994.7c-2.3 0-4.7-0.2-7-0.8-13.6-3.1-23.6-14.6-24.7-28.4l-21.7-258.1c-1.5-17.6 11.6-33 29.1-34.4 17.5-1.5 33 11.6 34.4 29.1l13.3 157.7L471 773c8.8-15.2 28.4-20.3 43.6-11.4 15.2 8.9 20.3 28.4 11.4 43.6L424.6 978.9c-5.8 9.9-16.4 15.8-27.5 15.8z" /></svg>