<?xml version="1.0" standalone="no"?><!DOCTYPE svg PUBLIC "-//W3C//DTD SVG 1.1//EN" "http://www.w3.org/Graphics/SVG/1.1/DTD/svg11.dtd"><svg class="icon" width="128px" height="128.00px" viewBox="0 0 1024 1024" version="1.1" xmlns="http://www.w3.org/2000/svg"><path d="M829.77 693.3a205 205 0 0 1-21.32-1 27.78 27.78 0 0 1 6-55.22c14.31 1.53 59.92 1.71 80.07-16.43 4.38-3.94 10.19-10.88 10.19-25.67V468.86c0-26.7-6.85-45.74-21-58.21-25.57-22.72-68.28-17.76-68.71-17.65a27.77 27.77 0 0 1-7.19-55.07c2.74-0.34 67.59-8.46 112.39 30.78 26.61 23.32 40.1 57 40.1 100.18V595c0 27-9.92 50.24-28.7 67.08-29.91 26.76-75.09 31.22-101.83 31.22zM578.76 923.75a27.77 27.77 0 0 1-7.16-54.6c99.93-26.71 179-104.17 207.11-202.65V357a27.78 27.78 0 0 1 55.55 0l-1 320.65C800.86 796.74 706.08 890.71 586 922.8a27.49 27.49 0 0 1-7.24 0.95zM205.56 717.94c-26.74 0-71.93-4.45-101.83-31.26C85 669.84 75 646.64 75 619.6V493.48c0-43.16 13.49-76.86 40.09-100.16 44.82-39.24 109.68-31.14 112.4-30.78a27.77 27.77 0 0 1-7.21 55.07c-0.46 0-43.16-5-68.79 17.67-14.1 12.46-21 31.5-21 58.2V619.6c0 14.79 5.8 21.73 10.18 25.67 20.17 18.15 65.76 17.91 80.15 16.43a27.77 27.77 0 0 1 6 55.22 205 205 0 0 1-21.26 1.02zM223.85 718a27.77 27.77 0 0 1-27.77-27.77V328.5a28.38 28.38 0 0 1 0.64-5.95C224.48 196 324.88 96.43 452.51 69 670.43 22.05 795.77 229.2 797 231.3a27.78 27.78 0 0 1-47.82 28.29C745 252.48 642.59 85 464.19 123.25 358.74 146 275.6 227.57 251.63 331.58v358.64A27.77 27.77 0 0 1 223.85 718zM484.81 820.78h53.3c44.15 0 79.95 31.22 79.95 69.72 0 38.51-35.8 69.72-79.95 69.72h-53.3c-44.16 0-79.95-31.21-79.95-69.72 0-38.5 35.79-69.72 79.95-69.72zM532.75 643.57c-66.81 0-127.5-31.23-160.79-58.05a27.77 27.77 0 0 1 34.81-43.29c5.39 4.29 128.34 100 231.14 1.6A27.78 27.78 0 0 1 676.34 584c-45.9 43.91-96.29 59.57-143.59 59.57zM377.09 460.33a27.77 27.77 0 0 1-27.77-27.78V321.47a27.77 27.77 0 1 1 55.54 0v111.08a27.77 27.77 0 0 1-27.77 27.78zM654.81 460.33A27.77 27.77 0 0 1 627 432.55V321.47a27.77 27.77 0 1 1 55.54 0v111.08a27.77 27.77 0 0 1-27.73 27.78z" /></svg>