<?xml version="1.0" standalone="no"?><!DOCTYPE svg PUBLIC "-//W3C//DTD SVG 1.1//EN" "http://www.w3.org/Graphics/SVG/1.1/DTD/svg11.dtd"><svg class="icon" width="128px" height="128.00px" viewBox="0 0 1024 1024" version="1.1" xmlns="http://www.w3.org/2000/svg"><path d="M726.308571 885.76H234.788571A158.72 158.72 0 0 1 73.142857 731.428571V416.182857a158.72 158.72 0 0 1 161.645714-158.72h491.52a158.72 158.72 0 0 1 157.988572 158.72V731.428571a157.988571 157.988571 0 0 1-157.988572 154.331429zM234.788571 315.977143a100.205714 100.205714 0 0 0-100.937142 100.205714V731.428571a100.205714 100.205714 0 0 0 100.937142 100.205715h491.52A100.205714 100.205714 0 0 0 826.514286 731.428571V416.182857a100.205714 100.205714 0 0 0-100.205715-100.205714zM121.417143 453.485714h742.4v59.977143H121.417143zM337.92 314.514286a29.257143 29.257143 0 0 1-29.257143-29.257143V179.2a29.257143 29.257143 0 1 1 58.514286 0V285.257143a29.257143 29.257143 0 0 1-29.257143 29.257143zM647.314286 314.514286a29.257143 29.257143 0 0 1-29.257143-29.257143V179.2a29.257143 29.257143 0 0 1 29.257143-29.257143 28.525714 28.525714 0 0 1 29.257143 29.257143V285.257143a28.525714 28.525714 0 0 1-29.257143 29.257143zM466.651429 789.211429L365.714286 719.725714a29.257143 29.257143 0 0 1-7.314286-40.96 28.525714 28.525714 0 0 1 40.228571-7.314285l63.634286 43.154285 162.377143-141.897143a29.257143 29.257143 0 1 1 38.765714 43.885715z" /></svg>