<?xml version="1.0" standalone="no"?><!DOCTYPE svg PUBLIC "-//W3C//DTD SVG 1.1//EN" "http://www.w3.org/Graphics/SVG/1.1/DTD/svg11.dtd"><svg class="icon" width="128px" height="128.00px" viewBox="0 0 1024 1024" version="1.1" xmlns="http://www.w3.org/2000/svg"><path d="M272.8 955.5c-10.2 0-20.4-1.5-30.3-4.7C171 928.1 123 862.4 123 787.3v-538c0-94.6 77-171.5 171.5-171.5H725c94.6 0 171.5 77 171.5 171.5v538.1c0 67.7-40 129.3-101.9 156.8-39.4 17.6-86 9.7-118.8-19.8L524.4 788 337.5 933c-19 14.8-41.8 22.5-64.7 22.5z m21.8-821.6c-63.7 0-115.4 51.8-115.4 115.4v538.1c0 50.5 32.3 94.7 80.4 110 14.5 4.6 30.7 1.3 43.6-8.7L527 715l186.4 167.7c16.4 14.7 39.4 18.8 58.5 10.3 41.6-18.5 68.6-60 68.6-105.5V249.3c0-63.7-51.8-115.4-115.4-115.4H294.6zM671.3 349.1H348.4c-15.5 0-28-12.6-28-28s12.5-28 28-28h322.8c15.5 0 28 12.6 28 28s-12.4 28-27.9 28z" /></svg>