<?xml version="1.0" standalone="no"?><!DOCTYPE svg PUBLIC "-//W3C//DTD SVG 1.1//EN" "http://www.w3.org/Graphics/SVG/1.1/DTD/svg11.dtd"><svg class="icon" width="128px" height="128.00px" viewBox="0 0 1024 1024" version="1.1" xmlns="http://www.w3.org/2000/svg"><path d="M508.8 910.9c-216.8 0-393.2-176.4-393.2-393.2 0-216.8 176.4-393.2 393.2-393.2 101.1 0 197.1 38.3 270.4 107.8 10.9 10.4 11.4 27.6 1 38.6a27.11 27.11 0 0 1-38.5 1C678.6 212 595.9 179 508.8 179c-186.7 0-338.6 152-338.6 338.7s151.9 338.6 338.6 338.6 338.6-151.9 338.6-338.6c0-15.1 12.2-27.3 27.3-27.3s27.3 12.2 27.3 27.3c0 216.8-176.4 393.2-393.2 393.2zM848.4 332.6L644.3 328c-7-0.2-10.9-8.1-6.7-13.8l141.6-189.7c4.2-5.6 13-4.1 15.1 2.5l62.4 194.3c1.9 5.7-2.4 11.4-8.3 11.3zM848.5 346.2h-0.5l-204-4.6c-8.3-0.2-15.8-5-19.4-12.5-3.7-7.5-2.8-16.4 2.2-23.1l141.6-189.7c5-6.7 13.3-9.9 21.5-8.6 8.3 1.4 15 7.2 17.5 15.2l62.4 194.3c2.2 6.8 1 14.3-3.3 20.1-4.3 5.6-10.9 8.9-18 8.9z m-194.1-31.7l187.2 4.2-57.2-178.3-130 174.1z" /></svg>