<?xml version="1.0" standalone="no"?><!DOCTYPE svg PUBLIC "-//W3C//DTD SVG 1.1//EN" "http://www.w3.org/Graphics/SVG/1.1/DTD/svg11.dtd"><svg class="icon" width="128px" height="128.00px" viewBox="0 0 1024 1024" version="1.1" xmlns="http://www.w3.org/2000/svg"><path d="M924 953.6c-7.6 0-15.3-2.9-21.1-8.7l-209-209c-66.6 57-152.9 91.4-247.2 91.4-210 0-380.8-170.8-380.8-380.8S236.8 65.7 446.7 65.7s380.8 170.8 380.8 380.8c0 94.3-34.4 180.6-91.4 247.2l209 209c5.8 5.8 8.7 13.5 8.7 21.1 0 7.6-2.9 15.3-8.7 21.1-5.8 5.8-13.4 8.7-21.1 8.7zM446.7 125.4c-177 0-321.1 144-321.1 321.1 0 177 144 321.1 321.1 321.1s321.1-144 321.1-321.1c0-177.1-144-321.1-321.1-321.1z" /></svg>