<?xml version="1.0" standalone="no"?><!DOCTYPE svg PUBLIC "-//W3C//DTD SVG 1.1//EN" "http://www.w3.org/Graphics/SVG/1.1/DTD/svg11.dtd"><svg class="icon" width="128px" height="128.00px" viewBox="0 0 1024 1024" version="1.1" xmlns="http://www.w3.org/2000/svg"><path d="M688.064 96h-301.76c-53.216 0-100.576 50.528-100.576 104l-29.12 0.672C203.488 200.672 160 250.496 160 303.936v520.096C160 877.6 207.36 928 260.544 928h377.28c53.184 0 100.544-50.496 100.544-104h25.088c53.152 0 100.544-50.496 100.544-103.936V304.544L688.064 96z m-50.336 780.064H260.544c-26.432 0-50.304-25.504-50.304-52.032V303.936c0-26.4 21.504-51.104 47.968-51.104l27.52-0.832v468.064c0 53.536 47.36 103.968 100.544 103.968h301.76c0 26.528-23.968 52.032-50.304 52.032z m176.032-156c0 26.4-23.872 52.032-50.304 52.032H386.24c-26.432 0-50.304-25.504-50.304-52.032V199.968c0-26.432 23.872-52.032 50.304-52.032h251.456c-0.384 59.84 0 104.672 0 104.672 0 54.08 46.976 103.36 100.544 103.36h75.52v364.096zM738.368 303.936c-26.816 0-50.336-50.304-50.336-77.344V148.64l125.76 155.296h-75.424z m-50.336 156.544h-226.368c-13.856 0-25.152 11.68-25.152 26.016 0 14.336 11.296 26.016 25.152 26.016h226.4c13.856 0 25.152-11.68 25.152-26.016 0-14.336-11.296-26.016-25.184-26.016z m0 129.888h-226.368c-13.856 0-25.152 11.68-25.152 26.016 0 14.336 11.296 26.016 25.152 26.016h226.4c13.856 0 25.152-11.68 25.152-26.016a25.6 25.6 0 0 0-25.184-26.016z" fill="#000000" fill-opacity=".65" /></svg>