<?xml version="1.0" standalone="no"?><!DOCTYPE svg PUBLIC "-//W3C//DTD SVG 1.1//EN" "http://www.w3.org/Graphics/SVG/1.1/DTD/svg11.dtd"><svg class="icon" width="128px" height="128.00px" viewBox="0 0 1024 1024" version="1.1" xmlns="http://www.w3.org/2000/svg"><path d="M505.173333 68.266667c-245.76 0-443.733333 197.973333-443.733333 443.733333s197.973333 443.733333 443.733333 443.733333 443.733333-197.973333 443.733334-443.733333-201.386667-443.733333-443.733334-443.733333z m0 819.2c-208.213333 0-375.466667-167.253333-375.466666-375.466667s167.253333-375.466667 375.466666-375.466667 375.466667 167.253333 375.466667 375.466667-170.666667 375.466667-375.466667 375.466667zM727.04 477.866667h-187.733333V290.133333c0-20.48-13.653333-34.133333-34.133334-34.133333s-34.133333 13.653333-34.133333 34.133333V477.866667H283.306667c-20.48 0-34.133333 13.653333-34.133334 34.133333s13.653333 34.133333 34.133334 34.133333h187.733333v187.733334c0 20.48 13.653333 34.133333 34.133333 34.133333s34.133333-13.653333 34.133334-34.133333V546.133333h187.733333c20.48 0 34.133333-13.653333 34.133333-34.133333s-17.066667-34.133333-34.133333-34.133333z" /></svg>