<?xml version="1.0" standalone="no"?><!DOCTYPE svg PUBLIC "-//W3C//DTD SVG 1.1//EN" "http://www.w3.org/Graphics/SVG/1.1/DTD/svg11.dtd"><svg class="icon" width="128px" height="128.00px" viewBox="0 0 1024 1024" version="1.1" xmlns="http://www.w3.org/2000/svg"><path d="M318.9 946.1L267.3 780C159.7 714.5 92.8 596.9 91.9 470.4 91.9 251.2 281.5 73 514.6 73s422.8 178.2 422.8 397.2c0 108.3-50.2 215-137.8 292.6-86.4 76.6-199.2 113.6-310.6 102.6l-170.1 80.7z m195.7-818.6c-203 0-368.2 153.7-368.2 342.7 0.8 110.5 61 213.2 157.3 267.9l9.4 5.3 39.2 126.4 127.4-60.5 7.8 0.9c98.5 12 199-20.3 275.9-88.4 75.9-67.3 119.4-159 119.4-251.7 0.1-188.9-165.1-342.6-368.2-342.6zM311.3 460.7m-58.9 0a58.9 58.9 0 1 0 117.8 0 58.9 58.9 0 1 0-117.8 0ZM531.9 460.7m-58.9 0a58.9 58.9 0 1 0 117.8 0 58.9 58.9 0 1 0-117.8 0ZM727 460.7m-58.9 0a58.9 58.9 0 1 0 117.8 0 58.9 58.9 0 1 0-117.8 0Z" /></svg>